<svg width="20" height="22" viewBox="0 0 20 22" fill="none" xmlns="http://www.w3.org/2000/svg">
<path d="M10.8751 0.725496C10.3869 0.237338 9.59549 0.237334 9.10733 0.725487L1.15234 8.6804C0.664184 9.16855 0.66418 9.96001 1.15233 10.4482C1.64049 10.9363 2.43194 10.9363 2.9201 10.4482L9.9912 3.37714L17.0622 10.4482C17.5504 10.9364 18.3418 10.9364 18.83 10.4483C19.3182 9.9601 19.3182 9.16864 18.83 8.68049L10.8751 0.725496ZM8.74112 20.3907C8.74112 21.0811 9.30076 21.6407 9.99111 21.6407C10.6815 21.6407 11.2411 21.0811 11.2411 20.3907L8.74112 20.3907ZM8.74121 1.60937L8.74112 20.3907L11.2411 20.3907L11.2412 1.60938L8.74121 1.60937Z" fill="black"/>
</svg>
