<svg width="36" height="36" viewBox="0 0 36 36" fill="none" xmlns="http://www.w3.org/2000/svg">
<circle cx="18" cy="18" r="18" fill="#0C64C5"/>
<g clip-path="url(#clip0_4279_1665)">
<path d="M13.1996 14.7837H9.57807C9.41734 14.7837 9.28711 14.914 9.28711 15.0747V26.709C9.28711 26.8697 9.41734 26.9999 9.57807 26.9999H13.1996C13.3603 26.9999 13.4905 26.8697 13.4905 26.709V15.0747C13.4905 14.914 13.3603 14.7837 13.1996 14.7837Z" fill="white"/>
<path d="M11.3897 9C10.072 9 9 10.0709 9 11.3871C9 12.704 10.072 13.7752 11.3897 13.7752C12.7064 13.7752 13.7775 12.7039 13.7775 11.3871C13.7776 10.0709 12.7064 9 11.3897 9Z" fill="white"/>
<path d="M22.4117 14.4944C20.9572 14.4944 19.882 15.1197 19.2298 15.8301V15.0745C19.2298 14.9138 19.0996 14.7835 18.9389 14.7835H15.4707C15.3099 14.7835 15.1797 14.9138 15.1797 15.0745V26.7088C15.1797 26.8696 15.3099 26.9998 15.4707 26.9998H19.0842C19.245 26.9998 19.3752 26.8696 19.3752 26.7088V20.9525C19.3752 19.0128 19.9021 18.2571 21.2542 18.2571C22.7269 18.2571 22.8439 19.4686 22.8439 21.0523V26.7089C22.8439 26.8696 22.9741 26.9998 23.1348 26.9998H26.7498C26.9105 26.9998 27.0407 26.8696 27.0407 26.7089V20.3273C27.0407 17.4429 26.4907 14.4944 22.4117 14.4944Z" fill="white"/>
</g>
<defs>
<clipPath id="clip0_4279_1665">
<rect width="18" height="18" fill="white" transform="translate(9 9)"/>
</clipPath>
</defs>
</svg>
