<svg width="35" height="30" viewBox="0 0 35 30" fill="none" xmlns="http://www.w3.org/2000/svg">
<path d="M1.53599 13.5858C0.754936 14.3668 0.75493 15.6332 1.53597 16.4142L14.2638 29.1422C15.0449 29.9232 16.3112 29.9232 17.0923 29.1422C17.8733 28.3612 17.8733 27.0948 17.0923 26.3138L5.77862 15L17.0924 3.68636C17.8734 2.90531 17.8734 1.63898 17.0924 0.857932C16.3114 0.0768793 15.045 0.0768737 14.264 0.857919L1.53599 13.5858ZM33.0004 17.0001C34.1049 17.0001 35.0004 16.1047 35.0004 15.0002C35.0004 13.8956 34.1049 13.0001 33.0004 13.0001L33.0004 17.0001ZM2.95019 17L33.0004 17.0001L33.0004 13.0001L2.9502 13L2.95019 17Z" fill="black"/>
</svg>
