<svg width="36" height="36" viewBox="0 0 36 36" fill="none" xmlns="http://www.w3.org/2000/svg">
<circle cx="18" cy="18" r="18" fill="#1877F2"/>
<path d="M13.7434 18.5868H15.7165V26.7097C15.7165 26.8701 15.8465 27 16.0069 27H19.3523C19.5127 27 19.6426 26.8701 19.6426 26.7097V18.6251H21.9109C22.0583 18.6251 22.1824 18.5144 22.1993 18.3679L22.5438 15.3775C22.5532 15.2952 22.5272 15.2128 22.4721 15.1511C22.417 15.0893 22.3382 15.0539 22.2554 15.0539H19.6427V13.1794C19.6427 12.6143 19.947 12.3277 20.5472 12.3277C20.6327 12.3277 22.2554 12.3277 22.2554 12.3277C22.4158 12.3277 22.5457 12.1977 22.5457 12.0374V9.29247C22.5457 9.1321 22.4158 9.00215 22.2554 9.00215H19.9012C19.8846 9.00134 19.8477 9 19.7934 9C19.3849 9 17.965 9.08019 16.8435 10.112C15.6008 11.2554 15.7735 12.6244 15.8148 12.8618V15.0539H13.7434C13.5831 15.0539 13.4531 15.1838 13.4531 15.3442V18.2964C13.4531 18.4568 13.5831 18.5868 13.7434 18.5868Z" fill="white"/>
</svg>
