<svg width="36" height="36" viewBox="0 0 36 36" fill="none" xmlns="http://www.w3.org/2000/svg">
<circle cx="18" cy="18" r="18" fill="#4B144B"/>
<g clip-path="url(#clip0_4279_1672)">
<path d="M12.9991 20.2757C12.9988 20.6341 12.8923 20.9843 12.693 21.282C12.4937 21.5798 12.2106 21.8118 11.8794 21.9488C11.5483 22.0857 11.184 22.1213 10.8326 22.0512C10.4812 21.9812 10.1585 21.8085 9.90519 21.555C9.65193 21.3015 9.4795 20.9786 9.40971 20.6272C9.33991 20.2757 9.37589 19.9114 9.51308 19.5804C9.65028 19.2494 9.88253 18.9665 10.1805 18.7674C10.4784 18.5684 10.8287 18.4622 11.187 18.4622H12.9991V20.2757Z" fill="#E21E5C"/>
<path d="M13.9102 20.2759C13.9102 19.7953 14.1011 19.3344 14.4409 18.9946C14.7807 18.6548 15.2416 18.4639 15.7222 18.4639C16.2028 18.4639 16.6637 18.6548 17.0035 18.9946C17.3433 19.3344 17.5342 19.7953 17.5342 20.2759V24.8133C17.5342 25.2939 17.3433 25.7548 17.0035 26.0947C16.6637 26.4345 16.2028 26.6254 15.7222 26.6254C15.2416 26.6254 14.7807 26.4345 14.4409 26.0947C14.1011 25.7548 13.9102 25.2939 13.9102 24.8133V20.2759Z" fill="#E21E5C"/>
<path d="M15.7226 12.9991C15.3643 12.9988 15.0141 12.8923 14.7163 12.693C14.4185 12.4937 14.1865 12.2106 14.0496 11.8794C13.9127 11.5483 13.877 11.184 13.9471 10.8326C14.0172 10.4812 14.1899 10.1585 14.4434 9.90519C14.6969 9.65193 15.0197 9.4795 15.3712 9.40971C15.7227 9.33991 16.0869 9.37589 16.418 9.51308C16.749 9.65028 17.0319 9.88253 17.2309 10.1805C17.43 10.4784 17.5362 10.8287 17.5362 11.187V12.9991H15.7226Z" fill="#39C6F1"/>
<path d="M15.7245 13.9124C16.2051 13.9124 16.666 14.1033 17.0058 14.4431C17.3456 14.7829 17.5365 15.2438 17.5365 15.7244C17.5365 16.205 17.3456 16.6659 17.0058 17.0057C16.666 17.3455 16.2051 17.5364 15.7245 17.5364H11.187C10.7065 17.5364 10.2456 17.3455 9.90574 17.0057C9.56591 16.6659 9.375 16.205 9.375 15.7244C9.375 15.2438 9.56591 14.7829 9.90574 14.4431C10.2456 14.1033 10.7065 13.9124 11.187 13.9124H15.7245Z" fill="#39C6F1"/>
<path d="M23.002 15.7243C23.0023 15.366 23.1088 15.0158 23.3081 14.718C23.5074 14.4202 23.7905 14.1882 24.1216 14.0513C24.4528 13.9144 24.8171 13.8787 25.1685 13.9488C25.5199 14.0189 25.8426 14.1916 26.0959 14.4451C26.3491 14.6986 26.5215 15.0215 26.5913 15.3729C26.6611 15.7244 26.6252 16.0886 26.488 16.4197C26.3508 16.7507 26.1185 17.0336 25.8206 17.2326C25.5226 17.4317 25.1723 17.5379 24.814 17.5379H23.002V15.7243Z" fill="#31B67F"/>
<path d="M22.087 15.7245C22.087 16.2051 21.8961 16.666 21.5562 17.0058C21.2164 17.3456 20.7555 17.5365 20.2749 17.5365C19.7944 17.5365 19.3335 17.3456 18.9936 17.0058C18.6538 16.666 18.4629 16.2051 18.4629 15.7245V11.187C18.4629 10.7065 18.6538 10.2456 18.9936 9.90574C19.3335 9.56591 19.7944 9.375 20.2749 9.375C20.7555 9.375 21.2164 9.56591 21.5562 9.90574C21.8961 10.2456 22.087 10.7065 22.087 11.187V15.7245Z" fill="#31B67F"/>
<path d="M20.2745 23.0007C20.6328 23.001 20.983 23.1076 21.2808 23.3069C21.5786 23.5062 21.8106 23.7893 21.9475 24.1204C22.0845 24.4515 22.1201 24.8158 22.05 25.1672C21.9799 25.5186 21.8072 25.8414 21.5537 26.0946C21.3003 26.3479 20.9774 26.5203 20.6259 26.5901C20.2745 26.6599 19.9102 26.6239 19.5792 26.4867C19.2482 26.3495 18.9653 26.1173 18.7662 25.8193C18.5672 25.5214 18.4609 25.1711 18.4609 24.8128V23.0007H20.2745Z" fill="#EDB32E"/>
<path d="M20.2749 22.088C19.7944 22.088 19.3335 21.897 18.9936 21.5572C18.6538 21.2174 18.4629 20.7565 18.4629 20.2759C18.4629 19.7953 18.6538 19.3344 18.9936 18.9946C19.3335 18.6548 19.7944 18.4639 20.2749 18.4639H24.8124C25.293 18.4639 25.7539 18.6548 26.0937 18.9946C26.4335 19.3344 26.6244 19.7953 26.6244 20.2759C26.6244 20.7565 26.4335 21.2174 26.0937 21.5572C25.7539 21.897 25.293 22.088 24.8124 22.088H20.2749Z" fill="#EDB32E"/>
</g>
<defs>
<clipPath id="clip0_4279_1672">
<rect width="18" height="18" fill="white" transform="translate(9 9)"/>
</clipPath>
</defs>
</svg>
