<svg id="Layer_1" data-name="Layer 1" xmlns="http://www.w3.org/2000/svg" viewBox="0 0 161.83 12.08"><defs><style>.cls-1{fill-rule:evenodd;}</style></defs><rect x="68.91" width="3.57" height="3.01"/><rect x="89.55" width="3.57" height="3.01"/><rect x="137.42" width="3.57" height="3.01"/><polygon class="cls-1" points="8.19 3.84 12.94 3.84 12.94 0.67 0 0.67 0 3.84 4.75 3.84 4.75 12.08 8.19 12.08 8.19 3.84"/><path class="cls-1" d="M235.11,424.92c0-1.61.82-2.43,2.12-2.43s2.05.82,2.05,2.43v2.46h3.39v-3.53c0-2.75-1.5-4.44-4.06-4.44a4.22,4.22,0,0,0-3.5,1.91v-6h-3.4v12.08h3.4Z" transform="translate(-216.5 -415.3)"/><path class="cls-1" d="M250.94,422.13a2.58,2.58,0,0,1,2.53,2.54h-5.11c.27-1.54,1.18-2.54,2.58-2.54Zm-2.54,4.66h8.32c0-.31,0-.62,0-.89,0-3.39-1.83-6.49-5.83-6.49a6,6,0,0,0-5.91,6.22v.05a6.71,6.71,0,0,0,.22,1.7h3.33a4.55,4.55,0,0,1-.18-.59Z" transform="translate(-216.5 -415.3)"/><polygon class="cls-1" points="53.2 6.16 57.11 12.08 58.09 12.08 62.04 6.09 62.04 12.08 65.45 12.08 65.45 0.67 61.75 0.67 57.65 7.27 53.54 0.67 49.84 0.67 49.84 12.08 53.2 12.08 53.2 6.16"/><rect x="69" y="4.33" width="3.39" height="7.75"/><path class="cls-1" d="M295.47,424.92c0-1.61.83-2.43,2.12-2.43s2.06.82,2.06,2.43v2.46H303v-3.53c0-2.75-1.49-4.44-4-4.44a4.24,4.24,0,0,0-3.51,1.91v-1.69h-3.39v7.75h3.39Z" transform="translate(-216.5 -415.3)"/><rect x="89.64" y="4.33" width="3.39" height="7.75"/><path class="cls-1" d="M316.11,424.92c0-1.61.78-2.43,2.05-2.43s2,.82,2,2.43v2.46h3.39v-2.46c0-1.61.78-2.43,2-2.43s2,.82,2,2.43v2.46H331V423.8c0-2.88-1.52-4.39-4-4.39A5,5,0,0,0,323,421.3a3.57,3.57,0,0,0-3.37-1.89,4.28,4.28,0,0,0-3.52,1.91v-1.69h-3.39v7.75h3.39Z" transform="translate(-216.5 -415.3)"/><path class="cls-1" d="M338.82,426.32a5.22,5.22,0,0,1,2.16.45v.6h3.22v-2.73a5.16,5.16,0,0,0-1.3-3.81,5.5,5.5,0,0,0-4-1.34,10.36,10.36,0,0,0-4.64,1l.84,2.58a8.82,8.82,0,0,1,3.3-.64c1.7,0,2.57.78,2.57,2.18v.21a8.5,8.5,0,0,0-2.92-.5c-2.56,0-4.42,1-4.76,3.09h3.33c.28-.69,1.07-1.06,2.23-1.06Z" transform="translate(-216.5 -415.3)"/><rect x="130.78" width="3.39" height="12.08"/><rect x="137.51" y="4.33" width="3.39" height="7.75"/><path class="cls-1" d="M365.75,424.36c-1.3-.45-2.44-.76-2.44-1.43v0c0-.47.43-.83,1.26-.83a7.13,7.13,0,0,1,3.23,1.12l1.29-2.34a8.26,8.26,0,0,0-4.46-1.39c-2.41,0-4.37,1.36-4.37,3.79v.05c0,2.32,1.89,3.1,3.57,3.59.58.18,1.14.33,1.57.5h3.92c-.29-1.79-2-2.51-3.57-3Z" transform="translate(-216.5 -415.3)"/><polygon class="cls-1" points="159.02 7.23 161.83 7.23 161.83 4.33 159.02 4.33 159.02 1.27 155.63 1.27 155.63 4.33 154.2 4.33 154.2 7.23 155.63 7.23 155.63 12.08 159.02 12.08 159.02 7.23"/></svg>