<svg width="36" height="36" viewBox="0 0 36 36" fill="none" xmlns="http://www.w3.org/2000/svg">
<circle cx="18" cy="18" r="18" fill="#1D9BF0"/>
<path d="M26.9443 13.0412C27.0132 12.9578 27.0187 12.8389 26.9579 12.7495C26.8971 12.66 26.7844 12.6213 26.6816 12.6548C26.2042 12.8104 25.7071 12.921 25.1942 12.9833C25.8059 12.6133 26.3105 12.0808 26.6474 11.4448C26.6967 11.3518 26.6805 11.2376 26.6074 11.1619C26.5342 11.0862 26.4206 11.0663 26.3259 11.1124C25.7309 11.4019 25.0945 11.619 24.4274 11.7514C23.7102 10.9813 22.6894 10.5 21.559 10.5C19.3895 10.5 17.6297 12.2744 17.6297 14.4636C17.6297 14.7737 17.6646 15.0759 17.7321 15.3667C14.7621 15.216 12.0975 13.8969 10.1819 11.8553C10.0494 11.7141 9.85171 11.6545 9.66333 11.6987C9.47491 11.7429 9.3242 11.8843 9.26855 12.0697C9.15954 12.4332 9.10075 12.8189 9.10075 13.2181C9.10075 14.594 9.70935 15.8069 10.7635 16.5176C10.4789 16.5084 10.0816 16.4202 9.72685 16.3248C9.52896 16.2716 9.31765 16.3274 9.17205 16.4717C9.02649 16.616 8.96905 16.8266 9.0203 17.025C9.40233 18.5039 10.6463 19.6563 12.1363 19.9583C11.8057 20.0491 11.5019 20.0973 11.1433 20.0973C11.1432 20.0973 11.1431 20.0973 11.1429 20.0973C10.9823 20.0973 10.8336 20.1827 10.7528 20.3215C10.6719 20.4604 10.6711 20.6315 10.7502 20.7714C11.4172 21.9506 12.6724 22.7527 14.1064 22.7799C12.7615 23.8424 11.0721 24.4756 9.23189 24.4756C9.23077 24.4756 9.22961 24.4756 9.22849 24.4756C9.12359 24.4755 9.03216 24.547 9.00679 24.6487C8.98143 24.7506 9.02872 24.8565 9.12136 24.9057C10.6745 25.7314 12.444 26.2012 14.3215 26.2012C21.5485 26.2012 25.5015 20.1609 25.5015 14.9234C25.5015 14.751 25.4978 14.5813 25.4903 14.4107C26.0293 14.0176 26.5186 13.5564 26.9443 13.0412Z" fill="white"/>
</svg>
